<?xml version="1.0" encoding="UTF-8" standalone="no"?>
<!DOCTYPE svg PUBLIC "-//W3C//DTD SVG 1.1//EN" "http://www.w3.org/Graphics/SVG/1.1/DTD/svg11.dtd">
<svg width="100%" height="100%" viewBox="0 0 1000 1000" version="1.1" xmlns="http://www.w3.org/2000/svg" xmlns:xlink="http://www.w3.org/1999/xlink" xml:space="preserve" xmlns:serif="http://www.serif.com/" style="fill-rule:evenodd;clip-rule:evenodd;stroke-linejoin:round;stroke-miterlimit:1.41421;">
    <g transform="matrix(-2.8611,0,0,2.8611,1654.44,-151.221)">
        <g transform="matrix(-1.00816,-1.23464e-16,-1.23464e-16,1.00816,393.192,294.448)">
            <path d="M6.055,4.922L6.516,3.895L7.002,2.849L7.508,1.796L8.033,0.751L8.572,-0.27L9.12,-1.251L9.672,-2.179L9.949,-2.618L10.224,-3.04L10.497,-3.444L10.768,-3.829L11.036,-4.195L11.298,-4.543L11.556,-4.873L11.807,-5.187L12.285,-5.775L12.724,-6.326L13.114,-6.864L13.445,-7.412L13.586,-7.698L13.708,-7.995L13.812,-8.305L13.894,-8.63L13.955,-8.971L13.994,-9.328L14.009,-9.702L13.999,-10.092L13.964,-10.497L13.903,-10.916L13.816,-11.346L13.701,-11.786L13.558,-12.232L13.388,-12.683L13.19,-13.136L12.964,-13.589L12.71,-14.038L12.43,-14.48L12.123,-14.915L11.79,-15.338L11.432,-15.749L11.052,-16.146L10.65,-16.527L10.228,-16.892L9.788,-17.241L9.333,-17.572L8.864,-17.887L8.385,-18.187L7.404,-18.741L6.411,-19.244L5.425,-19.707L4.463,-20.143L3.54,-20.563L2.667,-20.979L1.849,-21.398L1.084,-21.828L0.364,-22.267L-1.001,-23.161L-1.681,-23.599L-2.382,-24.016L-3.119,-24.399L-3.503,-24.573L-3.899,-24.734L-4.305,-24.878L-4.721,-25.004L-5.145,-25.111L-5.576,-25.197L-6.011,-25.259L-6.447,-25.297L-6.881,-25.308L-7.31,-25.292L-7.731,-25.247L-8.14,-25.171L-8.533,-25.064L-8.909,-24.925L-9.263,-24.754L-9.594,-24.55L-9.898,-24.312L-10.175,-24.042L-10.424,-23.739L-10.643,-23.404L-10.832,-23.038L-10.993,-22.642L-11.126,-22.218L-11.233,-21.766L-11.315,-21.289L-11.374,-20.789L-11.414,-20.267L-11.436,-19.725L-11.443,-19.166L-11.438,-18.591L-11.405,-17.402L-11.358,-16.175L-11.32,-14.924L-11.308,-13.66L-11.337,-12.394L-11.413,-11.131L-11.54,-9.874L-11.715,-8.623L-11.931,-7.377L-12.181,-6.131L-12.735,-3.628L-13.013,-2.363L-13.274,-1.085L-13.508,0.209L-13.704,1.515L-13.854,2.832L-13.954,4.152L-14.004,5.467L-14.004,6.767L-13.957,8.038L-13.868,9.271L-13.743,10.454L-13.668,11.024L-13.587,11.578L-13.499,12.115L-13.406,12.635L-13.309,13.137L-13.207,13.621L-13.102,14.087L-12.994,14.536L-12.77,15.382L-12.537,16.171L-12.295,16.913L-12.042,17.624L-11.776,18.319L-11.491,19.012L-11.183,19.713L-10.846,20.426L-10.473,21.15L-10.058,21.875L-9.595,22.584L-9.343,22.926L-9.077,23.257L-8.797,23.572L-8.502,23.87L-8.193,24.146L-7.868,24.399L-7.529,24.625L-7.176,24.822L-6.809,24.987L-6.43,25.119L-6.039,25.217L-5.638,25.278L-5.23,25.303L-4.815,25.291L-4.396,25.242L-3.974,25.157L-3.553,25.036L-3.134,24.879L-2.72,24.689L-2.313,24.466L-1.914,24.212L-1.527,23.929L-1.153,23.619L-0.793,23.283L-0.449,22.923L-0.123,22.542L0.185,22.142L0.474,21.724L0.744,21.29L0.995,20.844L1.228,20.385L1.442,19.918L1.639,19.443L1.82,18.961L2.137,17.988L2.404,17.009L2.635,16.036L2.841,15.075L3.036,14.132L3.231,13.208L3.438,12.303L3.663,11.412L3.912,10.528L4.19,9.642L4.5,8.746L4.842,7.831L5.216,6.892L5.62,5.922L6.055,4.922Z" style="fill-rule:nonzero;"/>
        </g>
        <g transform="matrix(-1.00214,-1.22727e-16,-1.22727e-16,1.00214,453.552,280.974)">
            <path d="M-16.095,25.047L-16.007,26.382L-15.863,27.71L-15.662,29.034L-15.409,30.364L-15.11,31.716L-14.782,33.115L-14.613,33.84L-14.444,34.584L-14.28,35.348L-14.123,36.134L-13.979,36.937L-13.851,37.756L-13.744,38.586L-13.663,39.419L-13.612,40.251L-13.595,41.074L-13.617,41.881L-13.68,42.668L-13.788,43.429L-13.943,44.159L-14.145,44.856L-14.395,45.519L-14.694,46.146L-15.041,46.737L-15.437,47.291L-15.881,47.809L-16.624,48.128L-17.357,48.423L-18.08,48.693L-18.795,48.938L-19.499,49.159L-20.194,49.354L-20.88,49.524L-21.556,49.67L-22.223,49.791L-22.881,49.887L-23.529,49.959L-24.168,50.005L-24.799,50.028L-25.42,50.026L-26.033,50L-26.638,49.95L-27.235,49.876L-27.824,49.779L-28.405,49.658L-28.979,49.515L-29.547,49.348L-30.109,49.16L-30.664,48.949L-31.215,48.717L-31.76,48.464L-32.301,48.191L-32.838,47.897L-33.372,47.584L-33.902,47.251L-34.429,46.9L-34.954,46.53L-35.476,46.143L-36.513,45.318L-37.539,44.427L-38.554,43.476L-39.553,42.467L-40.531,41.403L-41.483,40.288L-42.401,39.125L-43.278,37.916L-44.105,36.663L-44.498,36.022L-44.877,35.37L-45.239,34.709L-45.584,34.038L-45.911,33.358L-46.22,32.67L-46.51,31.972L-46.78,31.267L-47.03,30.553L-47.259,29.831L-47.467,29.101L-47.653,28.364L-47.817,27.62L-47.959,26.868L-48.079,26.11L-48.177,25.345L-48.252,24.574L-48.304,23.797L-48.334,23.015L-48.342,22.227L-48.328,21.434L-48.292,20.636L-48.234,19.834L-48.156,19.028L-48.056,18.219L-47.937,17.406L-47.798,16.592L-47.64,15.775L-47.463,14.957L-47.269,14.138L-46.83,12.5L-46.329,10.866L-45.772,9.242L-45.165,7.632L-44.514,6.043L-43.822,4.479L-43.095,2.945L-42.334,1.446L-41.541,-0.013L-40.716,-1.43L-39.856,-2.8L-38.958,-4.122L-38.493,-4.763L-38.016,-5.392L-37.528,-6.008L-37.026,-6.61L-36.51,-7.199L-35.979,-7.774L-35.433,-8.336L-34.872,-8.883L-34.293,-9.416L-33.697,-9.935L-33.083,-10.44L-32.451,-10.93L-31.801,-11.406L-31.131,-11.866L-30.442,-12.312L-29.735,-12.742L-29.008,-13.157L-28.263,-13.557L-27.5,-13.941L-26.719,-14.308L-25.922,-14.66L-25.109,-14.994L-24.281,-15.312L-23.439,-15.613L-22.584,-15.896L-21.717,-16.161L-20.84,-16.409L-19.953,-16.638L-19.058,-16.849L-18.156,-17.04L-17.249,-17.213L-16.337,-17.366L-15.422,-17.5L-14.505,-17.614L-13.587,-17.708L-12.669,-17.782L-11.753,-17.835L-10.839,-17.867L-9.928,-17.88L-9.021,-17.871L-8.118,-17.841L-7.22,-17.791L-6.327,-17.72L-5.44,-17.628L-4.559,-17.515L-3.683,-17.382L-2.814,-17.228L-1.95,-17.053L-1.093,-16.859L-0.241,-16.644L0.605,-16.41L1.445,-16.156L2.281,-15.883L3.111,-15.591L3.937,-15.28L4.758,-14.952L5.575,-14.605L6.388,-14.242L8.004,-13.465L9.605,-12.625L11.193,-11.728L12.767,-10.778L14.326,-9.78L15.868,-8.742L17.388,-7.67L18.885,-6.569L20.353,-5.448L21.788,-4.312L23.186,-3.168L24.543,-2.024L25.855,-0.886L27.118,0.241L28.33,1.349L29.488,2.434L30.59,3.49L31.638,4.515L32.629,5.504L33.566,6.459L34.448,7.379L35.278,8.268L36.057,9.134L36.785,9.986L37.466,10.838L38.101,11.707L38.69,12.611L38.968,13.082L39.235,13.569L39.492,14.074L39.737,14.599L39.973,15.146L40.197,15.717L40.411,16.311L40.614,16.931L40.807,17.575L40.988,18.245L41.159,18.938L41.318,19.655L41.466,20.392L41.602,21.147L41.726,21.918L41.838,22.701L42.023,24.29L42.155,25.884L42.2,26.672L42.23,27.449L42.245,28.211L42.245,28.952L42.23,29.671L42.198,30.361L42.151,31.02L42.086,31.644L42.005,32.23L41.907,32.776L41.792,33.279L41.659,33.737L41.509,34.148L41.341,34.512L41.155,34.828L40.952,35.094L40.731,35.311L40.492,35.478L40.236,35.596L39.961,35.663L39.674,35.959L39.374,36.233L39.059,36.485L38.731,36.714L38.389,36.921L38.033,37.107L37.663,37.27L37.28,37.41L36.883,37.529L36.473,37.626L36.05,37.701L35.613,37.754L35.164,37.785L34.702,37.795L34.229,37.784L33.743,37.751L33.246,37.698L32.739,37.625L32.221,37.531L31.695,37.418L31.159,37.286L30.615,37.136L30.065,36.967L29.507,36.781L28.377,36.359L27.23,35.875L26.074,35.335L24.916,34.746L23.761,34.115L22.616,33.448L21.486,32.754L20.374,32.042L19.285,31.319L18.222,30.593L17.186,29.873L16.18,29.164L15.204,28.472L14.258,27.801L13.343,27.154L12.458,26.531L11.6,25.93L10.769,25.345L9.961,24.772L9.175,24.2L8.405,23.623L7.65,23.033L6.903,22.422L6.162,21.787L5.42,21.128L4.673,20.448L3.914,19.755L3.138,19.062L2.339,18.385L1.513,17.74L1.088,17.436L0.655,17.147L0.213,16.875L-0.237,16.623L-0.696,16.392L-1.164,16.185L-1.64,16.002L-2.125,15.845L-2.617,15.716L-3.117,15.616L-3.623,15.544L-4.134,15.501L-4.65,15.487L-5.169,15.502L-5.69,15.546L-6.211,15.617L-6.731,15.716L-7.25,15.84L-7.764,15.99L-8.273,16.164L-8.776,16.36L-9.27,16.579L-9.754,16.817L-10.228,17.076L-10.689,17.352L-11.137,17.645L-11.57,17.954L-11.988,18.278L-12.389,18.616L-12.773,18.968L-13.139,19.332L-13.486,19.708L-13.814,20.096L-14.123,20.495L-14.412,20.904L-14.681,21.325L-14.929,21.755L-15.158,22.196L-15.365,22.647L-15.552,23.107L-15.719,23.578L-15.865,24.058L-15.99,24.547L-16.095,25.047Z" style="fill-rule:nonzero;"/>
        </g>
        <g transform="matrix(0.34567,-1.38778e-17,1.38778e-17,0.34567,239.072,54.6173)">
            <path d="M454.749,804.727L655.905,720.543L653.187,764.139L462.46,843.958L212.232,773.337L108,523.002L367.999,596.381L454.749,804.727ZM299.021,748.35C299.846,745.18 300.532,741.976 301.077,738.747C301.373,732.451 297.951,726.536 292.344,723.656C296.473,723.93 300.192,726.279 302.212,729.889C302.406,727.693 302.534,725.492 302.598,723.289C301.282,713.993 294.749,706.23 285.814,703.346C292.329,703.491 298.429,706.621 302.347,711.829C302.041,707.641 301.501,703.472 300.729,699.344C295.857,694.046 289.35,690.525 282.249,689.347C281.643,689.246 281.036,689.202 280.435,689.211L280.408,689.212C280.247,689.215 280.087,689.221 279.927,689.232C279.859,689.236 279.791,689.242 279.724,689.247C279.626,689.256 279.528,689.266 279.431,689.277C279.336,689.288 279.243,689.3 279.149,689.313C279.067,689.325 278.985,689.338 278.904,689.352C278.8,689.369 278.697,689.388 278.595,689.409L278.569,689.414L278.548,689.418C278.277,689.474 278.01,689.541 277.745,689.618C277.637,689.65 277.529,689.683 277.421,689.718C276.886,689.895 276.365,690.115 275.866,690.377C275.789,690.418 275.712,690.459 275.636,690.502C275.241,690.722 274.861,690.969 274.497,691.242C274.278,691.406 274.064,691.58 273.858,691.763C273.754,691.855 273.651,691.95 273.551,692.046C273.442,692.15 273.336,692.257 273.232,692.367L273.216,692.384L273.188,692.414C273.093,692.514 273.001,692.617 272.91,692.722C272.877,692.76 272.844,692.799 272.811,692.838L272.755,692.905C272.72,692.948 272.685,692.992 272.65,693.035C272.612,693.083 272.575,693.131 272.538,693.179C278.629,712.762 287.551,731.349 299.021,748.35ZM279.376,666.495C277.665,670.387 277.77,674.845 279.662,678.652C276.685,675.991 272.51,675.098 268.704,676.309C270.778,678.679 273.136,680.784 275.724,682.579C279.626,685.283 284.505,686.192 289.119,685.074C291.639,684.464 293.97,683.243 295.907,681.52C292.753,678.765 288.323,677.964 284.403,679.44C284.657,674.608 282.825,669.891 279.376,666.495Z" style="fill-rule:nonzero;"/>
        </g>
        <g transform="matrix(-1,-1.22465e-16,-1.22465e-16,1,425.01,361.777)">
            <path d="M-52.656,-27.723L-51.465,-27.979L-50.266,-28.254L-49.061,-28.549L-47.854,-28.869L-46.653,-29.219L-45.47,-29.612L-44.891,-29.83L-44.324,-30.065L-43.772,-30.32L-43.238,-30.597L-42.725,-30.899L-42.236,-31.226L-41.772,-31.58L-41.335,-31.96L-40.926,-32.365L-40.545,-32.79L-40.189,-33.232L-39.857,-33.684L-39.247,-34.584L-38.959,-35.012L-38.674,-35.413L-38.387,-35.776L-38.091,-36.093L-37.78,-36.355L-37.449,-36.557L-37.275,-36.634L-37.094,-36.695L-36.905,-36.739L-36.709,-36.766L-36.504,-36.777L-36.291,-36.772L-36.069,-36.751L-35.838,-36.714L-35.598,-36.662L-35.347,-36.596L-34.817,-36.422L-34.247,-36.197L-33.635,-35.928L-32.98,-35.619L-32.283,-35.277L-31.542,-34.905L-30.758,-34.51L-29.931,-34.093L-29.06,-33.66L-28.145,-33.211L-27.187,-32.75L-26.187,-32.279L-25.145,-31.799L-24.061,-31.311L-22.937,-30.816L-21.774,-30.314L-20.573,-29.807L-19.335,-29.293L-18.062,-28.774L-16.756,-28.25L-15.42,-27.719L-14.055,-27.183L-12.663,-26.641L-11.249,-26.093L-9.815,-25.54L-6.898,-24.417L-0.982,-22.126L1.954,-20.976L3.401,-20.403L4.83,-19.836L6.236,-19.274L7.616,-18.719L8.966,-18.175L10.283,-17.641L11.565,-17.121L12.809,-16.617L14.013,-16.129L15.176,-15.662L16.296,-15.215L17.373,-14.792L18.408,-14.394L19.401,-14.024L20.354,-13.682L21.269,-13.372L22.15,-13.095L22.999,-12.853L23.822,-12.647L24.625,-12.478L25.411,-12.349L26.188,-12.26L26.96,-12.211L27.734,-12.205L28.516,-12.239L29.31,-12.315L30.121,-12.432L30.954,-12.589L31.811,-12.784L32.696,-13.015L33.609,-13.279L34.55,-13.574L35.52,-13.896L36.514,-14.24L37.532,-14.601L38.568,-14.976L40.678,-15.742L42.8,-16.493L43.851,-16.848L44.887,-17.183L45.9,-17.492L46.886,-17.769L47.837,-18.009L48.747,-18.208L49.185,-18.29L49.612,-18.36L50.025,-18.418L50.426,-18.463L50.812,-18.495L51.185,-18.513L51.542,-18.518L51.885,-18.508L52.212,-18.483L52.524,-18.444L52.82,-18.39L53.1,-18.32L53.364,-18.236L53.611,-18.136L53.841,-18.021L54.055,-17.89L54.253,-17.743L54.433,-17.581L54.597,-17.403L54.743,-17.21L54.873,-17.001L54.986,-16.776L55.082,-16.535L55.161,-16.278L55.379,-15.688L55.543,-15.078L55.654,-14.446L55.711,-13.794L55.713,-13.121L55.662,-12.427L55.557,-11.712L55.399,-10.978L55.191,-10.223L54.934,-9.45L54.632,-8.659L54.29,-7.853L53.914,-7.033L53.509,-6.201L52.639,-4.514L51.734,-2.812L50.85,-1.115L50.429,-0.274L50.03,0.56L49.657,1.385L49.311,2.2L48.996,3.004L48.712,3.796L48.461,4.577L48.244,5.346L48.059,6.103L47.908,6.848L47.791,7.58L47.706,8.301L48.955,8.423L50.202,8.567L51.447,8.733L52.69,8.923L53.93,9.135L55.167,9.372L56.4,9.633L57.628,9.918L58.85,10.229L60.063,10.565L61.265,10.929L62.454,11.319L63.625,11.737L64.774,12.182L65.898,12.656L66.991,13.159L68.048,13.69L69.064,14.25L70.034,14.839L70.953,15.458L71.816,16.105L72.62,16.782L72.998,17.131L73.361,17.488L73.707,17.851L74.037,18.222L74.349,18.6L74.645,18.985L74.924,19.377L75.186,19.776L75.431,20.182L75.659,20.594L75.87,21.014L76.064,21.44L76.241,21.873L76.401,22.313L76.544,22.759L76.671,23.212L76.78,23.671L76.873,24.137L76.95,24.609L77.01,25.088L76.48,25.759L75.921,26.411L75.332,27.044L74.713,27.657L74.064,28.25L73.386,28.824L72.678,29.378L71.94,29.912L71.172,30.426L70.374,30.92L69.545,31.394L68.687,31.847L67.799,32.28L66.881,32.693L65.934,33.085L64.957,33.457L63.952,33.808L62.919,34.139L61.858,34.449L60.77,34.739L59.657,35.009L58.518,35.258L57.356,35.488L56.171,35.698L54.964,35.889L53.737,36.06L52.491,36.212L51.227,36.346L49.946,36.461L48.65,36.558L47.341,36.638L46.018,36.699L44.685,36.744L43.342,36.771L41.99,36.782L40.63,36.776L37.894,36.717L35.142,36.596L32.382,36.416L29.619,36.178L26.86,35.886L24.109,35.54L21.368,35.144L18.639,34.697L15.926,34.203L13.229,33.663L10.548,33.077L7.884,32.445L5.236,31.77L2.606,31.051L1.847,31.339L1.052,31.617L0.221,31.887L-0.646,32.147L-1.549,32.398L-2.488,32.639L-3.464,32.87L-4.477,33.092L-5.525,33.305L-6.611,33.507L-7.732,33.7L-8.89,33.883L-10.084,34.055L-11.313,34.218L-12.578,34.369L-13.878,34.51L-15.212,34.641L-16.579,34.76L-17.978,34.869L-19.409,34.966L-20.869,35.051L-22.357,35.125L-23.872,35.186L-25.412,35.236L-26.974,35.273L-28.557,35.298L-30.157,35.31L-31.773,35.308L-33.402,35.294L-35.042,35.266L-38.341,35.168L-41.648,35.013L-44.939,34.8L-46.571,34.672L-48.19,34.527L-49.793,34.368L-51.377,34.193L-52.939,34.002L-54.476,33.795L-55.985,33.573L-57.463,33.334L-58.908,33.08L-60.316,32.809L-61.685,32.523L-63.013,32.22L-64.298,31.902L-65.535,31.567L-66.725,31.217L-67.864,30.852L-68.951,30.471L-69.983,30.074L-70.96,29.663L-71.878,29.237L-72.738,28.796L-73.537,28.341L-74.275,27.871L-74.95,27.387L-75.562,26.889L-76.109,26.376L-76.592,25.85L-77.01,25.31L-76.839,24.376L-76.614,23.464L-76.336,22.572L-76.003,21.702L-75.616,20.854L-75.173,20.028L-74.675,19.224L-74.122,18.444L-73.513,17.689L-72.85,16.959L-72.133,16.256L-71.366,15.581L-70.55,14.935L-69.688,14.319L-68.783,13.735L-67.839,13.183L-66.858,12.666L-65.845,12.185L-64.802,11.74L-63.733,11.332L-62.64,10.962L-61.525,10.63L-60.392,10.337L-59.242,10.081L-58.076,9.864L-56.895,9.683L-55.701,9.54L-54.494,9.432L-53.275,9.361L-52.044,9.324L-50.801,9.323L-49.547,9.356L-50.011,8.216L-50.45,7.058L-50.863,5.883L-51.251,4.69L-51.612,3.48L-51.948,2.253L-52.256,1.01L-52.537,-0.25L-52.792,-1.525L-53.018,-2.814L-53.218,-4.114L-53.391,-5.424L-53.537,-6.741L-53.657,-8.06L-53.753,-9.378L-53.824,-10.689L-53.874,-11.991L-53.901,-13.276L-53.909,-14.542L-53.898,-15.783L-53.87,-16.995L-53.825,-18.174L-53.765,-19.317L-53.691,-20.42L-53.603,-21.483L-53.502,-22.504L-53.389,-23.482L-53.265,-24.416L-53.129,-25.307L-52.982,-26.156L-52.824,-26.961L-52.656,-27.723Z" style="fill-rule:nonzero;"/>
        </g>
        <g transform="matrix(1,0,0,1,-2,1)">
            <path d="M464.525,255.424L464.353,254.496L464.19,253.583L464.037,252.684L463.894,251.801L463.759,250.933L463.634,250.079L463.519,249.241L463.413,248.418L463.317,247.609L463.229,246.815L463.152,246.036L463.084,245.271L462.976,243.783L462.906,242.351L462.873,240.969L462.878,239.635L462.921,238.343L463,237.087L463.115,235.86L463.265,234.651L463.45,233.453L463.669,232.253L463.919,231.043L464.199,229.812L464.508,228.553L464.842,227.257L465.199,225.921L465.576,224.54L465.97,223.115L466.375,221.648L466.788,220.145L467.204,218.613L468.025,215.493L468.419,213.925L468.796,212.364L469.151,210.818L469.478,209.296L469.773,207.803L470.031,206.344L470.249,204.92L470.422,203.532L470.547,202.175L470.622,200.847L470.645,199.542L470.612,198.254L470.522,196.978L470.375,195.71L470.171,194.443L469.908,193.175L469.587,191.906L469.21,190.634L468.777,189.362L468.292,188.093L467.754,186.832L467.168,185.583L466.534,184.352L465.856,183.144L465.135,181.964L464.374,180.819L463.574,179.711L462.737,178.646L461.865,177.625L460.957,176.652L460.015,175.727L459.04,174.851L458.032,174.026L456.992,173.251L455.919,172.527L454.814,171.854L458.155,169.347L461.439,166.844L464.664,164.344L467.832,161.848L470.94,159.352L473.987,156.855L476.974,154.352L479.899,151.837L482.762,149.302L484.17,148.025L485.562,146.738L486.938,145.442L488.298,144.133L489.643,142.811L490.972,141.474L492.285,140.12L493.583,138.747L494.867,137.353L496.135,135.936L497.39,134.495L498.631,133.026L499.858,131.529L501.073,130.001L502.276,128.44L503.468,126.845L504.649,125.212L505.819,123.541L506.978,121.83L508.125,120.076L509.261,118.278L510.383,116.434L511.491,114.543L512.581,112.604L513.652,110.616L514.698,108.576L515.717,106.485L516.702,104.342L517.648,102.147L518.104,101.029L518.548,99.898L518.979,98.754L519.396,97.597L519.797,96.426L520.182,95.242L520.549,94.045L520.899,92.834L521.229,91.611L521.538,90.374L521.826,89.125L522.091,87.862L522.332,86.586L522.549,85.298L522.74,83.996L522.904,82.682L523.04,81.355L523.146,80.015L523.223,78.663L523.27,77.298L523.284,75.921L523.265,74.531L523.213,73.129L523.127,71.715L523.006,70.288L522.848,68.849L522.654,67.398L522.424,65.935L522.155,64.46L521.849,62.973L521.504,61.473L521.12,59.962L520.698,58.439L520.236,56.904C519.88,55.762 518.808,54.985 517.612,55L516.873,55.022L516.125,55.067L515.369,55.137L514.605,55.23L513.833,55.347L513.052,55.488L512.264,55.652L511.468,55.84L510.665,56.051L509.854,56.285L509.037,56.541L508.213,56.82L507.383,57.121L506.548,57.444L505.707,57.788L504.861,58.154L504.01,58.541L503.156,58.948L502.297,59.376L501.435,59.823L500.571,60.29L499.704,60.776L498.836,61.281L497.966,61.805L497.095,62.346L496.224,62.905L494.482,64.074L492.744,65.309L491.015,66.606L489.298,67.963L487.596,69.377L485.913,70.844L484.253,72.362L482.619,73.927L481.014,75.537L479.44,77.189L477.901,78.88L476.398,80.607L474.934,82.369L473.511,84.161L472.129,85.983L470.791,87.831L469.496,89.704L468.244,91.599L467.036,93.514L465.871,95.448L464.747,97.398L463.663,99.362L462.617,101.34L461.607,103.33L460.631,105.329L459.686,107.338L458.77,109.354L457.879,111.376L457.01,113.403L456.162,115.435L455.331,117.471L453.709,121.548L452.124,125.63L448.999,133.79L445.862,141.926L444.273,145.98L442.665,150.025L441.038,154.059L439.391,158.083L439.172,157.484L438.949,156.858L438.722,156.206L438.491,155.527L438.255,154.821L438.016,154.089L437.772,153.33L437.524,152.545L437.272,151.733L437.014,150.894L436.753,150.029L436.486,149.138L436.213,148.221L435.935,147.279L435.651,146.311L435.361,145.319L435.064,144.304L434.76,143.266L434.448,142.206L434.127,141.126L433.798,140.027L433.458,138.91L433.108,137.777L432.747,136.63L431.987,134.298L431.173,131.928L430.297,129.537L429.834,128.337L429.354,127.137L428.854,125.939L428.336,124.744L427.797,123.555L427.237,122.372L426.656,121.198L426.053,120.034L425.427,118.881L424.779,117.741L424.106,116.614L423.41,115.503L422.69,114.407L421.946,113.328L421.177,112.266L420.384,111.222L419.566,110.196L418.724,109.189L417.857,108.201L416.966,107.232L416.05,106.283L415.11,105.353L414.146,104.443L413.158,103.553L412.146,102.683L411.11,101.833L410.051,101.003L408.968,100.192L407.862,99.402L406.733,98.631L405.58,97.879L404.405,97.148L403.206,96.435L401.985,95.743L400.456,95.589L398.947,95.462L397.458,95.362L395.99,95.289L394.541,95.244L393.113,95.225L391.705,95.234L390.316,95.27L388.947,95.333L387.597,95.424L386.265,95.542L384.951,95.686L383.654,95.857L382.372,96.055L381.105,96.278L379.851,96.527L378.609,96.8L377.376,97.098L376.15,97.42L374.931,97.765L373.716,98.132L372.502,98.522L371.29,98.934L370.076,99.368L368.859,99.824L367.638,100.302L366.413,100.803L365.181,101.328L363.944,101.878L362.699,102.453L361.448,103.055L360.191,103.685L358.929,104.345L357.662,105.034L356.391,105.755L355.118,106.506L353.846,107.29L352.575,108.106L351.309,108.953L350.051,109.831L348.804,110.739L347.571,111.673L346.356,112.633L345.163,113.616L343.997,114.619L342.86,115.638L341.757,116.671L340.691,117.714L339.667,118.765L338.687,119.819L337.753,120.874L336.869,121.927L336.036,122.976L335.254,124.017L334.525,125.048L333.848,126.069L333.223,127.077L332.647,128.072L332.121,129.053L331.642,130.019L331.209,130.969L330.82,131.904L330.475,132.823L330.173,133.725C329.764,135.029 330.091,136.456 331.027,137.452L331.422,137.838L331.858,138.2L332.334,138.54L332.851,138.856L333.408,139.149L334.004,139.42L334.639,139.669L335.311,139.896L336.019,140.103L336.763,140.29L337.541,140.457L338.353,140.606L339.196,140.736L340.069,140.85L340.971,140.946L341.9,141.027L342.855,141.093L343.833,141.145L344.834,141.183L345.855,141.208L346.895,141.221L347.952,141.223L350.108,141.193L352.31,141.124L354.542,141.02L356.788,140.884L359.034,140.72L361.266,140.531L363.47,140.318L365.632,140.084L367.74,139.831L368.771,139.698L369.784,139.56L370.778,139.419L371.753,139.274L372.707,139.125L373.64,138.972L374.551,138.816L375.439,138.656L376.303,138.494L377.144,138.328L377.961,138.159L378.754,137.987L379.523,137.812L380.266,137.634L380.986,137.453L381.68,137.269L382.35,137.083L382.996,136.894L383.617,136.702L384.213,136.508L384.785,136.311L385.333,136.111L385.857,135.909L386.356,135.704L386.956,136.479L387.592,137.269L388.265,138.075L388.975,138.898L389.721,139.737L390.504,140.593L391.324,141.466L392.178,142.358L393.067,143.268L393.988,144.199L394.939,145.15L395.916,146.123L396.916,147.12L397.934,148.141L398.967,149.188L400.01,150.262L401.059,151.364L402.11,152.496L403.159,153.657L404.202,154.85L405.237,156.074L406.261,157.329L407.272,158.616L408.27,159.935L409.252,161.284L410.218,162.664L411.168,164.075L412.102,165.515L413.019,166.985L413.919,168.483L414.803,170.011L415.671,171.567L414.736,171.78L413.782,172.022L412.807,172.294L411.812,172.595L410.796,172.925L409.761,173.284L408.705,173.673L407.629,174.091L406.534,174.538L405.419,175.014L404.285,175.519L403.132,176.053L401.961,176.615L400.771,177.205L399.565,177.823L398.343,178.469L397.105,179.141L395.852,179.84L394.586,180.565L393.309,181.314L392.02,182.088L390.723,182.886L389.419,183.706L388.109,184.547L386.795,185.409L385.479,186.29L384.164,187.19L382.852,188.107L380.242,189.986L377.669,191.92L376.402,192.904L375.151,193.898L373.918,194.9L372.705,195.909L371.516,196.925L370.351,197.945L369.214,198.969L368.107,199.996L367.031,201.024L365.989,202.053L364.982,203.081L364.013,204.108L363.084,205.133L362.195,206.154L361.349,207.172L360.548,208.185L359.791,209.193L359.082,210.195L358.419,211.191L357.806,212.179L357.241,213.16L356.726,214.133L356.26,215.097L355.844,216.052L355.478,216.998L355.161,217.933L354.893,218.859L354.672,219.773L354.497,220.676L354.368,221.567L354.281,222.447L354.236,223.314L354.231,224.169L354.263,225.01L354.331,225.839L354.434,226.654L354.569,227.456L354.736,228.244L354.932,229.018L355.158,229.779L355.412,230.527L355.694,231.261L356.005,231.982L356.345,232.69L356.715,233.386L357.116,234.07L357.547,234.743L358.012,235.405L358.509,236.058L359.039,236.701L359.604,237.336L360.203,237.964L360.835,238.586L361.5,239.203L362.197,239.816L362.923,240.426L363.676,241.036L364.454,241.646L365.253,242.257L366.07,242.872L367.745,244.115L369.449,245.386L371.151,246.692L372.821,248.041L373.636,248.732L374.432,249.434L375.208,250.148L375.96,250.873L376.687,251.608L377.387,252.354L378.057,253.109L378.696,253.872L379.303,254.642L379.876,255.419L380.415,256.202L380.919,256.989L381.386,257.779L381.817,258.572L382.21,259.366L382.565,260.161L382.883,260.955L383.162,261.749L383.402,262.542L383.604,263.333L383.766,264.123L383.89,264.91L383.975,265.694L384.02,266.476L384.027,267.256L383.994,268.032L383.922,268.806L383.811,269.577L384.035,269.794L384.276,269.986L384.534,270.153L384.809,270.295L385.1,270.412L385.408,270.505L385.732,270.573L386.071,270.615L386.425,270.633L386.793,270.626L387.173,270.594L387.564,270.536L387.964,270.454L388.372,270.347L388.786,270.216L389.204,270.062L389.625,269.884L390.047,269.685L390.468,269.466L390.888,269.229L391.719,268.708L392.537,268.145L394.14,267.002L394.935,266.475L395.734,266.007L396.138,265.799L396.546,265.61L396.96,265.44L397.38,265.289L397.806,265.155L398.241,265.037L399.133,264.845L400.059,264.702L401.015,264.602L401.994,264.543L402.982,264.538L403.474,264.561L403.962,264.604L404.443,264.67L404.914,264.763L405.373,264.884L405.817,265.037L406.245,265.224L406.653,265.445L407.041,265.702L407.406,265.995L407.748,266.323L408.066,266.684L408.359,267.077L408.627,267.498L408.871,267.945L409.089,268.413L409.284,268.9L409.455,269.4L409.603,269.912L409.73,270.43L409.837,270.951L409.924,271.472L409.994,271.989L410.047,272.5L410.109,273.494L410.124,274.443L410.105,275.341L410.063,276.192L409.968,277.821L409.939,278.654L409.935,279.09L409.939,279.544L409.953,280.018L409.978,280.516L410.015,281.038L410.066,281.584L410.131,282.152L410.211,282.739L410.307,283.34L410.42,283.947L410.55,284.552L410.697,285.145L410.863,285.715L411.046,286.253L411.248,286.748L411.467,287.189L411.583,287.387L411.703,287.568L411.828,287.732L411.957,287.877L412.089,288.003L412.226,288.109L412.366,288.196L412.509,288.262L412.656,288.307L412.807,288.332L412.96,288.336L413.116,288.321L413.275,288.286L413.435,288.232L413.599,288.161L413.763,288.072L414.098,287.846L414.437,287.565L414.778,287.237L415.119,286.872L415.795,286.073L416.451,285.244L417.075,284.445L417.372,284.07L417.66,283.717L417.937,283.389L418.202,283.086L418.457,282.81L418.699,282.563L418.931,282.344L419.15,282.154L419.523,281.763L419.933,281.347L420.383,280.907L420.871,280.442L421.398,279.953L421.963,279.44L422.566,278.903L423.207,278.342L423.884,277.76L424.598,277.156L425.346,276.532L426.127,275.891L426.939,275.234L427.78,274.564L428.648,273.883L429.539,273.195L430.451,272.501L431.381,271.806L433.284,270.424L435.223,269.072L437.174,267.776L438.146,267.155L439.113,266.556L440.072,265.981L441.02,265.43L441.957,264.907L442.879,264.412L443.786,263.945L444.676,263.509L445.548,263.102L446.401,262.725L447.236,262.377L448.052,262.058L448.849,261.767L449.63,261.502L450.394,261.262L451.143,261.044L451.88,260.846L452.606,260.665L454.032,260.344L455.433,260.055L456.811,259.774L458.156,259.475L458.81,259.313L459.447,259.137L460.062,258.947L460.653,258.739L461.214,258.512L461.742,258.265L462.234,257.995L462.688,257.702L463.101,257.385L463.472,257.043L463.8,256.676L464.085,256.284L464.327,255.867L464.525,255.424ZM415,194C420.519,194 425,198.481 425,204C425,209.519 420.519,214 415,214C409.481,214 405,209.519 405,204C405,198.481 409.481,194 415,194Z" style="fill-rule:nonzero;"/>
        </g>
    </g>
</svg>
